<?xml version="1.0" standalone="no"?>
<!DOCTYPE svg PUBLIC "-//W3C//DTD SVG 1.1//EN" "http://www.w3.org/Graphics/SVG/1.1/DTD/svg11.dtd">
<svg xmlns="http://www.w3.org/2000/svg">
  <defs>
    <font id="ShareTechMono" horiz-adv-x="544">
      <font-face font-family="Share Tech Mono" units-per-em="1000" panose-1="2 11 5 9 5 0 0 2 0 4" ascent="885" descent="-242" alphabetic="0" />
      <glyph unicode=" " glyph-name="space" horiz-adv-x="540" />
      <glyph unicode="!" glyph-name="exclam" horiz-adv-x="540" d="M312,700V208H227V700h85Zm8-600V0H220V100H320Z" />
      <glyph unicode="&quot;" glyph-name="quotedbl" horiz-adv-x="540" d="M145,610v90h95V610L220,453H165L145,610Zm155,0v90h95V610L375,453H320L300,610Z" />
      <glyph unicode="#" glyph-name="numbersign" horiz-adv-x="540" d="M310,0V180H230V0H150V180H80v75h70V455H80v75h70V700h80V530h80V700h80V530h70V455H390V255h70V180H390V0H310ZM230,255h80V455H230V255Z" />
      <glyph unicode="$" glyph-name="dollar" horiz-adv-x="540" d="M122,0V76H264q37,0 60,22t23,53v84q0,30-15.5,48.5T285,302H265q-74,0-117,43.5T105,472v28q0,138 122,164V780h85V670H418V594H275q-37,0-60-22t-23-53V453q0-31 20-51.5T264,381h20q71,0 110.5-41T434,216V170q0-69-31.5-110.5T312,5V-110H227V0H122Z" />
      <glyph unicode="%" glyph-name="percent" horiz-adv-x="540" d="M289,532q0-63-32-95.5T167,404h-8q-58,0-90,32.5T37,532v40q0,63 32,95.5T159,700h8q58,0 90-32.5T289,572V532Zm-70,51q0,25-13,41t-39,16h-8q-26,0-39-16t-13-41V521q0-25 13-41t39-16h8q26,0 39,16t13,41v62ZM527,416V354L12,281v62l515,73ZM499,128q0-63-32-95.5T377,0h-8q-58,0-90,32.5T247,128v40q0,63 32,95.5T369,296h8q58,0 90-32.5T499,168V128Zm-70,51q0,25-13,41t-39,16h-8q-26,0-39-16t-13-41V117q0-25 13-41t39-16h8q26,0 39,16t13,41v62Z" />
      <glyph unicode="&amp;" glyph-name="ampersand" horiz-adv-x="540" d="M253,0Q163,0 123,37.5T83,158V284q0,87 65,123Q93,446 93,523v21q0,81 43.5,118.5T265,700H371V625H253q-38,0-55.5-17T180,553V513q0-33 21-53t52-20H496V365H417V0H253ZM243,365q-33,0-53-19.5T170,293V148q0-38 18-55.5T244,75h92V365H243Z" />
      <glyph unicode="&apos;" glyph-name="quotesingle" horiz-adv-x="540" d="M222,610v90h95V610L297,453H242L222,610Z" />
      <glyph unicode="(" glyph-name="parenleft" horiz-adv-x="540" d="M170,505q0,116 29.5,188T282,820h88q-48-58-71-97.5T265.5,634T255,507V193q0-78 10.5-127T299-22.5T370-120H282Q229-65 199.5,7T170,195V505Z" />
      <glyph unicode=")" glyph-name="parenright" horiz-adv-x="540" d="M370,195Q370,79 340.5,7T258-120H170q48,58 71,97.5T274.5,66T285,193V507q0,78-10.5,127T241,722.5T170,820h88q53-55 82.5-127T370,505V195Z" />
      <glyph unicode="*" glyph-name="asterisk" horiz-adv-x="540" d="M357,340L269,482L178,340l-70,53L215,515L70,547l27,80l141-57L225,722h90L302,570l143,55l25-79L323,515L429,392l-72-52Z" />
      <glyph unicode="+" glyph-name="plus" horiz-adv-x="540" d="M230,118V275H79v75H230V508h80V350H460V275H310V118H230Z" />
      <glyph unicode="," glyph-name="comma" horiz-adv-x="540" d="M240,0V100H340V0L278-140H200L240,0Z" />
      <glyph unicode="-" glyph-name="hyphen" horiz-adv-x="540" d="M432,350V275H107v75H432Z" />
      <glyph unicode="." glyph-name="period" horiz-adv-x="540" d="M320,100V0H220V100H320Z" />
      <glyph unicode="/" glyph-name="slash" horiz-adv-x="540" d="M406,810h84L134-110H50L406,810Z" />
      <glyph unicode="0" glyph-name="zero" horiz-adv-x="540" d="M448,170q0-83-45.5-126.5T280,0H260Q183,0 137.5,43.5T92,170V530q0,84 45,127t123,43h20q78,0 123-43t45-127V170ZM363,549q0,31-23.5,53.5T280,625H260q-36,0-59.5-22.5T177,549V278L363,549ZM177,151q0-31 23.5-53.5T260,75h20q36,0 59.5,22.5T363,151V421L177,151Z" />
      <glyph unicode="1" glyph-name="one" horiz-adv-x="540" d="M243,75V621L102,569v81l131,50h95V75H437V0H112V75H243Z" />
      <glyph unicode="2" glyph-name="two" horiz-adv-x="540" d="M265,316q32,46 43.5,65.5T324,421t4,58v70q0,31-23,53t-60,22H125v76H235q87,0 133.5-42.5T415,530V488q0-50-7-81t-20-55t-43-67L197,76H435V0H105V88L265,316Z" />
      <glyph unicode="3" glyph-name="three" horiz-adv-x="540" d="M419,158q0-83-40-120.5T249,0H121V75H258q38,0 56,17.5T332,148V251q0,33-20,52.5T259,323H152v75h97q31,0 52,20t21,53v82q0,38-17.5,55T249,625H121v75H237q85,0 128.5-37.5T409,544V481q0-77-55-116q65-36 65-123V158Z" />
      <glyph unicode="4" glyph-name="four" horiz-adv-x="540" d="M293,0V156H87v86L194,700h81L173,229H293V457h85V229h75V156H378V0H293Z" />
      <glyph unicode="5" glyph-name="five" horiz-adv-x="540" d="M420,158q0-83-40-120.5T250,0H119V75H259q38,0 56,17.5T333,148V275q0,33-20,52.5T260,347H129V700H405V625H214V422h41q77,0 121-38t44-118V158Z" />
      <glyph unicode="6" glyph-name="six" horiz-adv-x="540" d="M448,170q0-82-45-126T290,0H255Q187,0 142,44T97,170V530q0,85 45.5,127.5T275,700H400V624H265q-37,0-60-22t-23-53V440h98q86,0 127-38t41-122V170ZM182,151q0-32 21-54t57-22h25q36,0 57,22t21,54V299q0,31-18.5,48.5T290,365H182V151Z" />
      <glyph unicode="7" glyph-name="seven" horiz-adv-x="540" d="M346,625H104v75H429V603L253,0H164L346,625Z" />
      <glyph unicode="8" glyph-name="eight" horiz-adv-x="540" d="M454,158q0-83-40-120.5T284,0H256Q166,0 126,37.5T86,158v84q0,87 65,123Q98,402 98,481v63q0,80 42,118t120,38h20q78,0 120-38t42-118V481q0-79-53-116q65-36 65-123V158ZM248,625q-34-1-48.5-18.5T185,553V471q0-32 18.5-51.5T250,398h34q31,0 51,20t20,53v82q0,38-16.5,55T284,625H248ZM367,251q0,33-20,52.5T294,323H246q-33,0-53-19.5T173,251V148q0-37 16-55t50-18h54q38,0 56,17.5T367,148V251Z" />
      <glyph unicode="9" glyph-name="nine" horiz-adv-x="540" d="M96,530q0,82 45,126t113,44h35q68,0 113-44t45-126V170q0-85-45.5-127.5T269,0H154V76H279q37,0 60,22t23,53V260H264q-86,0-127,38T96,420V530Zm266,19q0,32-21,54t-57,22H259q-36,0-57-22t-21-54V401q0-31 18.5-48.5T254,335H362V549Z" />
      <glyph unicode=":" glyph-name="colon" horiz-adv-x="540" d="M320,500V400H220V500H320Zm0-400V0H220V100H320Z" />
      <glyph unicode=";" glyph-name="semicolon" horiz-adv-x="540" d="M340,500V400H240V500H340ZM240,0V100H340V0L278-140H200L240,0Z" />
      <glyph unicode="&lt;" glyph-name="less" horiz-adv-x="540" d="M460,564V472L150,336L460,199V105L80,280V385L460,564Z" />
      <glyph unicode="=" glyph-name="equal" horiz-adv-x="540" d="M460,450V375H80v75H460Zm0-200V175H80v75H460Z" />
      <glyph unicode="&gt;" glyph-name="greater" horiz-adv-x="540" d="M396,336L80,472v92L460,385V280L80,105v94L396,336Z" />
      <glyph unicode="?" glyph-name="question" horiz-adv-x="540" d="M409,518q0-42-4-62.5t-18-41T338,358l-53-54V208H200V329l58,61q32,34 45,51t17,30.5t4,37.5v50q0,31-18,48t-55,17H126v76H241q168,0 168-150V518ZM293,100V0H193V100H293Z" />
      <glyph unicode="@" glyph-name="at" horiz-adv-x="540" d="M166,0Q95,0 62,32.5T29,140V550q0,79 37.5,114.5T189,700H354q84,0 120.5-34.5T511,550V223q0-60-24.5-84T411,115q-33,0-54.5,15.5T332,175q-15-16-33-23.5T251,144q-51,0-74,25.5T154,259V403q0,54 15,83.5t47.5,41T308,539h72V211q0-21 6.5-31T410,170q19,0 25,9t6,37V560q0,38-18,57.5T364,637H179q-43,0-61.5-19T99,560V130q0-67 67-67H351V0H166Zm94,202q26,0 39,15.5T312,254V482H297q-43,0-59-14.5T222,409V253q0-24 7.5-37.5T260,202Z" />
      <glyph unicode="A" glyph-name="A" horiz-adv-x="540" d="M173,177L134,0H45L214,700H329L495,0H406L368,177H173Zm179,75L270,634L189,252H352Z" />
      <glyph unicode="B" glyph-name="B" horiz-adv-x="540" d="M455,158q0-86-39.5-122T285,0H85V700H273q89,0 130.5-36T445,544V487q0-77-55-116q65-36 65-123V158ZM358,553q0,38-17.5,55T285,625H172V404H285q31,0 52,20t21,53v76Zm10-296q0,33-20,52.5T295,329H172V75H294q38,0 56,17.5T368,148V257Z" />
      <glyph unicode="C" glyph-name="C" horiz-adv-x="540" d="M289,0Q202,0 155.5,42.5T109,170V530q0,85 46.5,127.5T289,700H431V624H279q-37,0-60-22t-23-53V151q0-31 23-53t60-22H431V0H289Z" />
      <glyph unicode="D" glyph-name="D" horiz-adv-x="540" d="M458,158q0-86-39.5-122T288,0H82V700H276q90,0 136-36.5T458,544V158ZM371,553q0,33-20,52.5T298,625H169V75H297q38,0 56,17.5T371,148V553Z" />
      <glyph unicode="E" glyph-name="E" horiz-adv-x="540" d="M437,700V627H190V398H412V325H190V73H437V0H103V700H437Z" />
      <glyph unicode="F" glyph-name="F" horiz-adv-x="540" d="M415,388V315H193V0H106V700H440V627H193V388H415Z" />
      <glyph unicode="G" glyph-name="G" horiz-adv-x="540" d="M274,0Q187,0 140.5,42.5T94,170V530q0,85 46.5,127.5T274,700H415V624H264q-37,0-60-22t-23-53V151q0-31 23-53t60-22h98V293H275v75H445V0H274Z" />
      <glyph unicode="H" glyph-name="H" horiz-adv-x="540" d="M167,322V0H80V700h87V396H373V700h87V0H373V322H167Z" />
      <glyph unicode="I" glyph-name="I" horiz-adv-x="540" d="M226,73V627H136v73H403V627H313V73h90V0H136V73h90Z" />
      <glyph unicode="J" glyph-name="J" horiz-adv-x="540" d="M410,170q0-85-46.5-127.5T230,0H125V76H240q37,0 60,22t23,53V625H162v75H410V170Z" />
      <glyph unicode="K" glyph-name="K" horiz-adv-x="540" d="M168,258V0H81V700h87V398L358,700h95L260,391L465,0H365L206,315l-38-57Z" />
      <glyph unicode="L" glyph-name="L" horiz-adv-x="540" d="M202,700V76H425V0H115V700h87Z" />
      <glyph unicode="M" glyph-name="M" horiz-adv-x="540" d="M310,235H227L129,628V0H53V700H192l80-358l81,358H488V0H410V628L310,235Z" />
      <glyph unicode="N" glyph-name="N" horiz-adv-x="540" d="M160,0H79V700H221L379,74V700h81V0H317L160,626V0Z" />
      <glyph unicode="O" glyph-name="O" horiz-adv-x="540" d="M470,170q0-85-46.5-127.5T290,0H250Q163,0 116.5,42.5T70,170V530q0,85 46.5,127.5T250,700h40q87,0 133.5-42.5T470,530V170ZM383,549q0,31-23,53t-60,22H240q-37,0-60-22t-23-53V151q0-31 23-53t60-22h60q37,0 60,22t23,53V549Z" />
      <glyph unicode="P" glyph-name="P" horiz-adv-x="540" d="M451,430q0-81-43-119.5T281,272H177V0H90V700H279q85,0 128.5-37.5T451,544V430ZM364,553q0,38-17.5,55T291,625H177V347H291q38,0 55.5,17.5T364,420V553Z" />
      <glyph unicode="Q" glyph-name="Q" horiz-adv-x="540" d="M386,18Q347,0 290,0H250Q163,0 116.5,42.5T70,170V530q0,85 46.5,127.5T250,700h40q87,0 133.5-42.5T470,530V170q0-59-23-99L520-2L463-59L386,18Zm-3,531q0,31-23,53t-60,22H240q-37,0-60-22t-23-53V151q0-31 23-53t60-22h60q37,0 60,22t23,53V549Z" />
      <glyph unicode="R" glyph-name="R" horiz-adv-x="540" d="M157,290V0H70V700H258q85,0 128.5-37.5T430,544V448q0-113-90-141L479,0H384L255,290H157ZM343,553q0,38-17.5,55T270,625H157V365H270q38,0 55.5,17.5T343,438V553Z" />
      <glyph unicode="S" glyph-name="S" horiz-adv-x="540" d="M439,170q0-85-46.5-127.5T259,0H117V76H269q37,0 60,22t23,53V255q0,30-15.5,48.5T290,322H260q-74,0-117,43.5T100,492v38q0,85 46.5,127.5T280,700H423V624H270q-37,0-60-22t-23-53V473q0-31 20-51.5T259,401h30q71,0 110.5-41T439,236V170Z" />
      <glyph unicode="T" glyph-name="T" horiz-adv-x="540" d="M226,0V624H67v76H472V624H313V0H226Z" />
      <glyph unicode="U" glyph-name="U" horiz-adv-x="540" d="M462,170q0-85-46.5-127.5T282,0H257Q170,0 123.5,42.5T77,170V700h87V151q0-31 23-53t60-22h45q37,0 60,22t23,53V700h87V170Z" />
      <glyph unicode="V" glyph-name="V" horiz-adv-x="540" d="M56,700h88L264,88L393,700h86L322,0H203L56,700Z" />
      <glyph unicode="W" glyph-name="W" horiz-adv-x="540" d="M268,284L205,0H85L51,700h74L155,75l83,330h62L385,75l31,625h69L451,0H325L268,284Z" />
      <glyph unicode="X" glyph-name="X" horiz-adv-x="540" d="M145,0H51L225,362L67,700h95L272,463L386,700h93L317,363L489,0H391L271,263L145,0Z" />
      <glyph unicode="Y" glyph-name="Y" horiz-adv-x="540" d="M223,0V325L44,700h96L272,409L404,700h91L313,325V0H223Z" />
      <glyph unicode="Z" glyph-name="Z" horiz-adv-x="540" d="M441,0H87V88L361,626H110v74H451V612L178,74H441V0Z" />
      <glyph unicode="[" glyph-name="bracketleft" horiz-adv-x="540" d="M375,820V745H245V-45H375v-75H165V820H375Z" />
      <glyph unicode="\" glyph-name="backslash" horiz-adv-x="540" d="M490-110H406L50,810h84L490-110Z" />
      <glyph unicode="]" glyph-name="bracketright" horiz-adv-x="540" d="M295-45V745H165v75H375V-120H165v75H295Z" />
      <glyph unicode="^" glyph-name="asciicircum" horiz-adv-x="540" d="M159,420H71L215,760H329L468,420H377L273,700L159,420Z" />
      <glyph unicode="_" glyph-name="underscore" horiz-adv-x="540" d="M522-95v-75H18v75H522Z" />
      <glyph unicode="`" glyph-name="grave" horiz-adv-x="540" d="M267,715L371,580H285L163,715H267Z" />
      <glyph unicode="a" glyph-name="a" horiz-adv-x="540" d="M417,0q-13,0-28.5,8T362,30Q339,0 301,0H212Q136,0 101.5,30.5T67,135v20q0,155 146,155H337v50q0,31-19,48t-56,17H107v75H252q87,0 128.5-38T422,340V100q0-15 11.5-22.5T472,70V0H417ZM291,75q30,0 38,14t8,36V235H212q-26,0-43-17t-17-43V125q0-26 12-38t38-12h89Z" />
      <glyph unicode="b" glyph-name="b" horiz-adv-x="540" d="M453,160q0-84-41.5-122T283,0H87V700h85V480q30,20 75,20h36q88,0 129-37.5T453,340V160ZM237,425q-33,0-49-17.5T172,370V75H293q37,0 56,17t19,48V360q0,31-19,48t-56,17H237Z" />
      <glyph unicode="c" glyph-name="c" horiz-adv-x="540" d="M290,0Q202,0 161,37.5T120,160V340q0,84 41.5,122T290,500H419V425H280q-37,0-56-17t-19-48V140q0-31 19-48t56-17H419V0H290Z" />
      <glyph unicode="d" glyph-name="d" horiz-adv-x="540" d="M375,23Q342,0 295,0H254Q166,0 125,37.5T84,160V340q0,84 41.5,122T254,500H370V700h85V0H375V23ZM305,75q33,0 49,17.5T370,130V425H244q-37,0-56-17t-19-48V140q0-31 19-48t56-17h61Z" />
      <glyph unicode="e" glyph-name="e" horiz-adv-x="540" d="M264,0Q176,0 135,37.5T94,160V340q0,86 37,123t123,37h47q71,0 107.5-39.5T445,345V215H179V140q0-31 19-48t56-17H413V0H264Zm98,365q0,26-17,43t-43,17H244q-36,0-50.5-16.5T179,360V290H362v75Z" />
      <glyph unicode="f" glyph-name="f" horiz-adv-x="540" d="M304,625q-16,0-25.5-8.5T269,595V500H430V425H269V75H390V0H99V75h85V425H99v75h85v90q0,51 29,80.5T288,700H440V625H304Z" />
      <glyph unicode="g" glyph-name="g" horiz-adv-x="540" d="M467-35q0-68-40.5-101.5T300-170H92v75H310q36,0 54,14t18,36v32q0,23-18,36.5T310,37H137V175q-33,18-49,52T72,315v25q0,84 41.5,122T242,500H452V315q0-75-41-117.5T302,155H222V112h78q86,0 126.5-33.5T467-23V-35ZM302,230q31,0 47,20t18,42V425H232q-37,0-56-17t-19-48V295q0-31 19-48t56-17h70Z" />
      <glyph unicode="h" glyph-name="h" horiz-adv-x="540" d="M172,700V480q30,20 75,20h46q81,0 120.5-38T453,340V0H368V360q0,30-17.5,47.5T303,425H237q-32,0-48-16.5T172,373V0H87V700h85Z" />
      <glyph unicode="i" glyph-name="i" horiz-adv-x="540" d="M317,700V610H222v90h95ZM80,425v75H312V75H460V0H227V425H80Z" />
      <glyph unicode="j" glyph-name="j" horiz-adv-x="540" d="M402,700V610H307v90h95ZM278-95q16,0 25.5,8.5T313-65V425H166v75H398V-60q0-51-29-80.5T294-170H137v75H278Z" />
      <glyph unicode="k" glyph-name="k" horiz-adv-x="540" d="M181,214V0H96V700h85V322L338,500H445L271,303L459,0H354L207,244l-26-30Z" />
      <glyph unicode="l" glyph-name="l" horiz-adv-x="540" d="M302,0q-34,0-59.5,24T217,100V625H70v75H302V105q0-16 8-23t27-7H470V0H302Z" />
      <glyph unicode="m" glyph-name="m" horiz-adv-x="540" d="M118,500V477q26,23 62,23h6q70,0 99-40q33,40 87,40h6q61,0 90-31t29-110V0H417V360q0,41-8.5,57T370,433h-6q-30,0-41.5-20.5T310,367V0H230V360q0,42-10,57.5T184,433h-6q-30,0-42-17.5T123,376V0H43V500h75Z" />
      <glyph unicode="n" glyph-name="n" horiz-adv-x="540" d="M167,500V476q31,24 80,24h46q81,0 120.5-38T453,340V0H368V360q0,30-17.5,47.5T303,425H237q-33,0-49-17.5T172,370V0H87V500h80Z" />
      <glyph unicode="o" glyph-name="o" horiz-adv-x="540" d="M456,160q0-84-41.5-122T286,0H253Q166,0 124.5,38T83,160V340q0,84 41.5,122T253,500h33q87,0 128.5-38T456,340V160ZM371,360q0,31-19,48t-56,17H243q-37,0-56-17t-19-48V140q0-31 19-48t56-17h53q37,0 56,17t19,48V360Z" />
      <glyph unicode="p" glyph-name="p" horiz-adv-x="540" d="M167,500V476q31,24 80,24h36q88,0 129-37.5T453,340V160q0-84-41.5-122T283,0H172V-170H87V500h80Zm70-75q-33,0-49-17.5T172,370V75H293q37,0 56,17t19,48V360q0,31-19,48t-56,17H237Z" />
      <glyph unicode="q" glyph-name="q" horiz-adv-x="540" d="M370,20Q339,0 295,0H254Q166,0 125,37.5T84,160V340q0,84 41.5,122T254,500H455V-170H370V20ZM305,75q33,0 49,17.5T370,130V425H244q-37,0-56-17t-19-48V140q0-31 19-48t56-17h61Z" />
      <glyph unicode="r" glyph-name="r" horiz-adv-x="540" d="M173,75V425H100v75H253V473q33,27 80,27H436V420H323q-32,0-48-20.5T258,358V75H367V0H100V75h73Z" />
      <glyph unicode="s" glyph-name="s" horiz-adv-x="540" d="M422,125q0-63-38.5-94T272,0H123V75H282q27,0 41,11.5T337,120v53q0,45-43,45H257q-70,0-104.5,30.5T118,345v29q0,67 38,96.5T268,500H402V425H258q-25,0-40-11.5T203,380V344q0-23 13.5-34T251,299h34q67,0 102-32.5T422,170V125Z" />
      <glyph unicode="t" glyph-name="t" horiz-adv-x="540" d="M307,0q-51,0-78,33t-27,87V425H107v75h95V620h85V500H433V425H287V115q0-22 11-31t34-9H433V0H307Z" />
      <glyph unicode="u" glyph-name="u" horiz-adv-x="540" d="M367,23Q334,0 287,0H253Q172,0 132.5,38T93,160V500h85V140q0-30 17.5-47.5T243,75h54q32,0 47.5,16T362,127V500h85V0H367V23Z" />
      <glyph unicode="v" glyph-name="v" horiz-adv-x="540" d="M64,500h92L273,69L387,500h89L332,0H209L64,500Z" />
      <glyph unicode="w" glyph-name="w" horiz-adv-x="540" d="M272,251L218,0H125L35,500h85l57-397l66,307h65l60-307l57,397h80L416,0H320L272,251Z" />
      <glyph unicode="x" glyph-name="x" horiz-adv-x="540" d="M159,0H65L221,258L77,500h99l95-168l97,168h93L315,262L474,0H374L269,189L159,0Z" />
      <glyph unicode="y" glyph-name="y" horiz-adv-x="540" d="M180-95q24,0 36,9t18,31L248,0H228L63,500h92L280,81L389,500h87L321-54q-13-51-32-76t-42.5-32.5T186-170H138v75h42Z" />
      <glyph unicode="z" glyph-name="z" horiz-adv-x="540" d="M424,0H106V80L340,426H126v74H434V411L202,74H424V0Z" />
      <glyph unicode="{" glyph-name="braceleft" horiz-adv-x="540" d="M147,405q40,0 55.5,12.5T218,469V698q0,67 25,94.5T327,820h65V750H341q-24,0-34.5-7.5T296,713V469q0-50-24.5-82T211,349q36-4 60.5-36T296,231V-13q0-22 10.5-29.5T341-50h51v-70H327q-59,0-84,27.5T218,2V231q0,39-15.5,51.5T147,295V405Z" />
      <glyph unicode="|" glyph-name="bar" horiz-adv-x="540" d="M310,810V-110H230V810h80Z" />
      <glyph unicode="}" glyph-name="braceright" horiz-adv-x="540" d="M392,295q-40,0-55.5-12.5T321,231V2q0-67-25-94.5T212-120H147v70h51q24,0 34.5,7.5T243-13V231q0,50 24.5,82T328,349q-36,6-60.5,38T243,469V713q0,22-10.5,29.5T198,750H147v70h65q59,0 84-27.5T321,698V469q0-39 15.5-51.5T392,405V295Z" />
      <glyph unicode="~" glyph-name="asciitilde" horiz-adv-x="540" d="M100,346q12,6 48.5,20.5T197,381h15q13,0 67-20q52-20 64-20h10q7,0 41,15t46,21V297q-11-6-44-20.5T352,262H337q-6,0-53,17q-65,23-77,23H197q-9,0-46.5-15T100,266v80Z" />
      <glyph unicode="&#xa0;" glyph-name="uni00A0" horiz-adv-x="540" />
      <glyph unicode="&#xa1;" glyph-name="exclamdown" horiz-adv-x="540" d="M220,400V500H320V400H220Zm8-600V292h85V-200H228Z" />
      <glyph unicode="&#xa2;" glyph-name="cent" horiz-adv-x="540" d="M260,0Q188,6 154,43.5T120,159V339q0,77 34,114.5T260,497V600h80V499h79V424H280q-37,0-56-17t-19-48V139q0-31 19-48t56-17H419V-1H340V-110H260V0Z" />
      <glyph unicode="&#xa3;" glyph-name="sterling" horiz-adv-x="540" d="M162,530q0,85 46.5,127.5T342,700h97V624H332q-37,0-60-22t-23-53V413H377V340H249V73H447V0H92V73h70V340H92v73h70V530Z" />
      <glyph unicode="&#xa4;" glyph-name="currency" horiz-adv-x="540" d="M85,174q-12,32-12,78v98q0,48 12,79L14,501l57,57l68-68q37,20 104,20h53q65,0 104-21l69,69l57-57l-73-73q13-30 13-78V252q0-45-12-77l72-72L469,46l-67,67Q362,92 296,92H243q-69,0-105,21L71,46L14,103l71,71ZM381,370q0,31-19,48t-56,17H233q-37,0-56-17t-19-48V232q0-31 19-48t56-17h73q37,0 56,17t19,48V370Z" />
      <glyph unicode="&#xa5;" glyph-name="yen" horiz-adv-x="540" d="M224,0V115H94v75H224v75H94v75H221L55,700h96L273,427L394,700h91L316,340H444V265H314V190H444V115H314V0H224Z" />
      <glyph unicode="&#xa6;" glyph-name="brokenbar" horiz-adv-x="540" d="M310,810V450H230V810h80Zm0-560V-110H230V250h80Z" />
      <glyph unicode="&#xa7;" glyph-name="section" horiz-adv-x="540" d="M113,355q0,36 12.5,64.5T157,462q-14,15-22,37.5T127,550v10q0,73 38,106.5T277,700H401V625H267q-24,0-39.5-11.5T212,580V540q0-23 13-34t35-11h29q137,0 137-145v-5q0-68-44-107q14-10 22-34.5t8-53.5V140q0-73-38-106.5T262,0H138V75H272q24,0 39.5,11.5T327,120v40q0,45-44,45H250q-137,0-137,145v5Zm120,65q-17,0-26-11.5T198,375V330q0-23 13-36.5T251,280h55q16,0 25.5,11.5T341,325v45q0,24-11,37t-41,13H233Z" />
      <glyph unicode="&#xa8;" glyph-name="dieresis" horiz-adv-x="540" d="M212,675V595H127v80h85Zm200,0V595H327v80h85Z" />
      <glyph unicode="&#xa9;" glyph-name="copyright" horiz-adv-x="540" d="M515,170q0-84-43-127T352,0H188Q111,0 68,43T25,170V530q0,84 43,127t120,43H352q77,0 120-43t43-127V170ZM443,552q0,33-24.5,58.5T352,636H188q-43,0-67-25.5T97,552V147q0-33 24-58.5T188,63H352q43,0 67,25.5T443,147V552ZM283,157q-52,0-80,23.5T175,251V449q0,47 28,70.5T283,543h75V492H278q-21,0-33.5-12T232,450V250q0-17 12.5-29.5T278,208h79V157H283Z" />
      <glyph unicode="&#xaa;" glyph-name="ordfeminine" horiz-adv-x="540" d="M369,324q-10,0-21,5.5T329,344q-17-20-43-20H234q-57,0-83,23.5T125,426v15q0,116 110,116h74v38q0,23-12.5,33.5T256,639H155v61h94q65,0 96.5-28.5T377,580V399q0-12 8.5-17t28.5-5V324H369Zm-95,59q23,0 29,10t6,27v79H238q-19,0-32-12.5T193,454V422q0-39 37-39h44ZM398,75V0H147V75H398Z" />
      <glyph unicode="&#xab;" glyph-name="guillemotleft" horiz-adv-x="540" d="M201,506h66L204,299L267,92H201L112,299l89,207Zm160,0h66L364,299L427,92H361L272,299l89,207Z" />
      <glyph unicode="&#xac;" glyph-name="logicalnot" horiz-adv-x="540" d="M62,275v75H477V106H392V275H62Z" />
      <glyph unicode="&#xad;" glyph-name="uni00AD" horiz-adv-x="540" d="M432,350V275H107v75H432Z" />
      <glyph unicode="&#xae;" glyph-name="registered" horiz-adv-x="540" d="M515,170q0-84-43-127T352,0H188Q111,0 68,43T25,170V530q0,84 43,127t120,43H352q77,0 120-43t43-127V170ZM443,552q0,33-24.5,58.5T352,636H188q-43,0-67-25.5T97,552V147q0-33 24-58.5T188,63H352q43,0 67,25.5T443,147V552ZM225,317V159H169V543H276q104,0 104-86V404q0-62-54-78l83-167H348L270,317H225Zm94,140q0,21-10,30t-33,9H225V363h51q23,0 33,9.5T319,403v54Z" />
      <glyph unicode="&#xaf;" glyph-name="macron" horiz-adv-x="540" d="M397,675V605H142v70H397Z" />
      <glyph unicode="&#xb0;" glyph-name="degree" horiz-adv-x="540" d="M411,516q0-58-36-88.5T284,397H256q-55,0-91,30.5T129,516v66q0,58 35.5,88.5T256,701h28q56,0 91.5-30.5T411,582V516Zm-69,69q0,22-16.5,38T284,639H256q-25,0-41.5-16T198,585V513q0-22 16.5-38T256,459h28q25,0 41.5,16T342,513v72Z" />
      <glyph unicode="&#xb1;" glyph-name="plusminus" horiz-adv-x="540" d="M230,143V275H80v75H230V508h80V350H460V275H310V143H230ZM460,75V0H80V75H460Z" />
      <glyph unicode="&#xb2;" glyph-name="twosuperior" horiz-adv-x="540" d="M262,431q33,45 41.5,64t8.5,56v36q0,49-61,49H165v64h79q74,0 107.5-28.5T385,581V558q0-40-5-62.5T366,458t-35-50L228,269H390V205H150v73L262,431Z" />
      <glyph unicode="&#xb3;" glyph-name="threesuperior" horiz-adv-x="540" d="M381,324q0-63-29.5-91T254,205H158v64h93q28,0 42,11.5T307,319v55q0,24-15,38t-40,14H181v64h63q24,0 39.5,13.5T299,542v42q0,29-13,40.5T244,636H158v64h87q129,0 129-117V548q0-28-12-50.5T330,461q51-27 51-92V324Z" />
      <glyph unicode="&#xb4;" glyph-name="acute" horiz-adv-x="540" d="M376,715L254,580H168L272,715H376Z" />
      <glyph unicode="&#xb5;" glyph-name="mu" horiz-adv-x="540" d="M188,500V140q0-30 17.5-47.5T253,75h34q33,0 49,17.5T352,130V500h85V0H357V23Q324,0 277,0H263q-45,0-75,10V-170H103V500h85Z" />
      <glyph unicode="&#xb6;" glyph-name="paragraph" horiz-adv-x="540" d="M229,374q-88,0-127.5,34.5T62,527v13q0,85 40,122.5T229,700h89V630H218q-36,0-55.5-19.5T143,560V507q0-31 19-48t56-17H318V0H235V374h-6ZM453,700V0H373V700h80Z" />
      <glyph unicode="&#xb7;" glyph-name="periodcentered" horiz-adv-x="540" d="M320,360V260H220V360H320Z" />
      <glyph unicode="&#xb8;" glyph-name="cedilla" horiz-adv-x="540" d="M250-136q33,0 33,31q0,17-8.5,23T248-76H199V50h70V-21q46,0 66.5-17.5T356-105q0-58-25.5-76.5T268-200H183v64h67Z" />
      <glyph unicode="&#xb9;" glyph-name="onesuperior" horiz-adv-x="540" d="M245,269V633l-99-39v68l91,38h82V269h74V205H154v64h91Z" />
      <glyph unicode="&#xba;" glyph-name="ordmasculine" horiz-adv-x="540" d="M400,446q0-63-31-91.5T273,326H263q-66,0-97,28.5T135,446V582q0,63 31,91.5T263,702h10q65,0 96-28.5T400,582V446ZM332,593q0,23-14,35.5T276,641H259q-27,0-41.5-12.5T203,593V435q0-23 14.5-35.5T259,387h17q28,0 42,12.5T332,435V593ZM408,75V0H132V75H408Z" />
      <glyph unicode="&#xbb;" glyph-name="guillemotright" horiz-adv-x="540" d="M112,506h66l89-207L178,92H112l63,207L112,506Zm160,0h66l89-207L338,92H272l63,207L272,506Z" />
      <glyph unicode="&#xbc;" glyph-name="onequarter" horiz-adv-x="540" d="M375,810h74L193-110H119L375,810ZM77,269V630L11,591v71l68,38h72V269h34V205H29v64H77ZM428,0V117H327v74l54,304h69L388,181h36l27,143h47V181h30V117H498V0H428Z" />
      <glyph unicode="&#xbd;" glyph-name="onehalf" horiz-adv-x="540" d="M365,810h88L197-110H123L365,810ZM77,269V630L11,591v71l68,38h72V269h34V205H29v64H77Zm366-23q9,20 11.5,37.5T457,346v46q0,39-41,39H380v64h29q49,0 75-10.5t36-34T530,386V353q0-67-3-91t-15-46L441,64h94V0H365V73l78,173Z" />
      <glyph unicode="&#xbe;" glyph-name="threequarters" horiz-adv-x="540" d="M369,810h74L187-110H113L369,810ZM198,324q0-64-27-91.5T77,205H21v62H74q27,0 40.5,11.5T128,317v59q0,24-14.5,38T75,428H44v60H67q24,0 38.5,13.5T120,540v46q0,29-12,40.5T67,638H21v62H68q63,0 93-28t30-89V548q0-28-12-50.5T147,461q51-27 51-92V324ZM428,0V117H327v74l54,304h69L388,181h36l27,143h47V181h30V117H498V0H428Z" />
      <glyph unicode="&#xbf;" glyph-name="questiondown" horiz-adv-x="540" d="M247,400V500H347V400H247ZM131-18q0,42 4,62.5t18,41T202,142l53,54v96h85V171l-58-61q-32-33-45-50.5t-17-31T216-9V-59q0-31 18-48t55-17H414v-76H299Q131-200 131-50v32Z" />
      <glyph unicode="&#xc0;" glyph-name="Agrave" horiz-adv-x="540" d="M253,841L357,726H274L142,841H253ZM173,177L134,0H45L214,700H329L495,0H406L368,177H173Zm179,75L270,634L189,252H352Z" />
      <glyph unicode="&#xc1;" glyph-name="Aacute" horiz-adv-x="540" d="M396,841L264,726H181L285,841H396ZM173,177L134,0H45L214,700H329L495,0H406L368,177H173Zm179,75L270,634L181,252H352Z" />
      <glyph unicode="&#xc2;" glyph-name="Acircumflex" horiz-adv-x="540" d="M209,730H113L223,845h92L426,730H329l-60,64l-60-64ZM173,177L134,0H45L214,700H329L495,0H406L368,177H173Zm179,75L270,634L189,252H352Z" />
      <glyph unicode="&#xc3;" glyph-name="Atilde" horiz-adv-x="540" d="M135,807q9,5 37,19t40,14h15q8,0 24-6t33-14q42-20 54-20h10q8,0 33,15t34,21V764q-8-5-32.5-19T347,731H332q-5,0-45,17q-52,23-65,23H212q-9,0-38-15t-39-21v72Zm38-630L134,0H45L214,700H329L495,0H406L368,177H173Zm179,75L270,634L189,252H352Z" />
      <glyph unicode="&#xc4;" glyph-name="Adieresis" horiz-adv-x="540" d="M217,815V735H132v80h85Zm189,0l11-80H332v80h74ZM173,177L134,0H45L214,700H329L495,0H406L368,177H173Zm179,75L270,634L189,252H352Z" />
      <glyph unicode="&#xc5;" glyph-name="Aring" horiz-adv-x="540" d="M363,741q-2-45-28-66L495,0H406L368,177H173L134,0H45L208,674q-29,23-29,67v29q0,42 24.5,63.5T268,855h6q40,0 64.5-21.5T363,770V741Zm-57,30q0,38-32,38h-6q-18,0-26-10.5T234,771V740q0-17 8-27.5T268,702h6q32,0 32,38v31Zm46-519L270,634L189,252H352Z" />
      <glyph unicode="&#xc6;" glyph-name="AE" horiz-adv-x="540" d="M141,177L99,0H15L191,700H498V627H325l23-229H493V325H356L381,73H518V0H307L292,177H141ZM247,627L159,252H283L247,627Z" />
      <glyph unicode="&#xc7;" glyph-name="Ccedilla" horiz-adv-x="540" d="M303-136q33,0 33,31q0,17-8.5,23T301-76H252V2q-70,8-106.5,50.5T109,170V530q0,85 46.5,127.5T289,700H431V624H279q-37,0-60-22t-23-53V151q0-31 23-53t60-22H431V0H322V-21q46,0 66.5-17.5T409-105q0-58-25.5-76.5T321-200H236v64h67Z" />
      <glyph unicode="&#xc8;" glyph-name="Egrave" horiz-adv-x="540" d="M248,841L352,726H269L137,841H248ZM437,700V627H190V398H412V325H190V73H437V0H103V700H437Z" />
      <glyph unicode="&#xc9;" glyph-name="Eacute" horiz-adv-x="540" d="M397,841L265,726H182L286,841H397Zm40-141V627H190V398H412V325H190V73H437V0H103V700H437Z" />
      <glyph unicode="&#xca;" glyph-name="Ecircumflex" horiz-adv-x="540" d="M210,730H114L224,845h92L427,730H330l-60,64l-60-64Zm227-30V627H190V398H412V325H190V73H437V0H103V700H437Z" />
      <glyph unicode="&#xcb;" glyph-name="Edieresis" horiz-adv-x="540" d="M212,815V735H127v80h85Zm200,0V735H327v80h85Zm25-115V627H190V398H412V325H190V73H437V0H103V700H437Z" />
      <glyph unicode="&#xcc;" glyph-name="Igrave" horiz-adv-x="540" d="M247,841L351,726H268L136,841H247ZM229,73V627H139v73H406V627H316V73h90V0H139V73h90Z" />
      <glyph unicode="&#xcd;" glyph-name="Iacute" horiz-adv-x="540" d="M392,841L260,726H177L281,841H392ZM226,73V627H136v73H403V627H313V73h90V0H136V73h90Z" />
      <glyph unicode="&#xce;" glyph-name="Icircumflex" horiz-adv-x="540" d="M210,730H114L224,845h92L427,730H330l-60,64l-60-64ZM227,73V627H137v73H404V627H314V73h90V0H137V73h90Z" />
      <glyph unicode="&#xcf;" glyph-name="Idieresis" horiz-adv-x="540" d="M213,815V735H128v80h85Zm200,0V735H328v80h85ZM226,73V627H136v73H403V627H313V73h90V0H136V73h90Z" />
      <glyph unicode="&#xd0;" glyph-name="Eth" horiz-adv-x="540" d="M467,158q0-86-39.5-122T297,0H91V325H34v75H91V700H285q90,0 136-36.5T467,544V158ZM380,553q0,33-20,52.5T307,625H178V400H294V325H178V75H306q38,0 56,17.5T380,148V553Z" />
      <glyph unicode="&#xd1;" glyph-name="Ntilde" horiz-adv-x="540" d="M133,807q9,5 37,19t40,14h15q8,0 24-6t33-14q42-20 54-20h10q8,0 33,15t34,21V764q-8-5-32.5-19T345,731H330q-5,0-45,17q-52,23-65,23H210q-9,0-38-15t-39-21v72ZM160,0H79V700H221L379,74V700h81V0H317L160,626V0Z" />
      <glyph unicode="&#xd2;" glyph-name="Ograve" horiz-adv-x="540" d="M247,841L351,726H268L136,841H247ZM470,170q0-85-46.5-127.5T290,0H250Q163,0 116.5,42.5T70,170V530q0,85 46.5,127.5T250,700h40q87,0 133.5-42.5T470,530V170ZM383,549q0,31-23,53t-60,22H240q-37,0-60-22t-23-53V151q0-31 23-53t60-22h60q37,0 60,22t23,53V549Z" />
      <glyph unicode="&#xd3;" glyph-name="Oacute" horiz-adv-x="540" d="M399,841L267,726H184L288,841H399Zm71-671q0-85-46.5-127.5T290,0H250Q163,0 116.5,42.5T70,170V530q0,85 46.5,127.5T250,700h40q87,0 133.5-42.5T470,530V170ZM383,549q0,31-23,53t-60,22H240q-37,0-60-22t-23-53V151q0-31 23-53t60-22h60q37,0 60,22t23,53V549Z" />
      <glyph unicode="&#xd4;" glyph-name="Ocircumflex" horiz-adv-x="540" d="M209,730H113L223,845h92L426,730H329l-60,64l-60-64ZM470,170q0-85-46.5-127.5T290,0H250Q163,0 116.5,42.5T70,170V530q0,85 46.5,127.5T250,700h40q87,0 133.5-42.5T470,530V170ZM383,549q0,31-23,53t-60,22H240q-37,0-60-22t-23-53V151q0-31 23-53t60-22h60q37,0 60,22t23,53V549Z" />
      <glyph unicode="&#xd5;" glyph-name="Otilde" horiz-adv-x="540" d="M132,807q9,5 37,19t40,14h15q8,0 24-6t33-14q42-20 54-20h10q7,0 32.5,15T412,836V764q-8-5-32.5-19T344,731H329q-5,0-45,17q-52,23-65,23H209q-9,0-38-15t-39-21v72ZM470,170q0-85-46.5-127.5T290,0H250Q163,0 116.5,42.5T70,170V530q0,85 46.5,127.5T250,700h40q87,0 133.5-42.5T470,530V170ZM383,549q0,31-23,53t-60,22H240q-37,0-60-22t-23-53V151q0-31 23-53t60-22h60q37,0 60,22t23,53V549Z" />
      <glyph unicode="&#xd6;" glyph-name="Odieresis" horiz-adv-x="540" d="M216,815V735H131v80h85Zm200,0V735H331v80h85Zm54-645q0-85-46.5-127.5T290,0H250Q163,0 116.5,42.5T70,170V530q0,85 46.5,127.5T250,700h40q87,0 133.5-42.5T470,530V170ZM383,549q0,31-23,53t-60,22H240q-37,0-60-22t-23-53V151q0-31 23-53t60-22h60q37,0 60,22t23,53V549Z" />
      <glyph unicode="&#xd7;" glyph-name="multiply" horiz-adv-x="540" d="M97,193L213,310L97,427l56,56L270,367L387,483l56-56L327,310L443,193l-56-56L270,253L153,137L97,193Z" />
      <glyph unicode="&#xd8;" glyph-name="Oslash" horiz-adv-x="540" d="M470,170q0-85-46.5-127.5T290,0H250q-27,0-39,2L185-91H109L141,24Q70,66 70,170V530q0,85 46.5,127.5T250,700h40q13,0 37-2l26,93h76L397,676q73-40 73-146V170ZM157,151q0-20 9-35L306,624H240q-37,0-60-22t-23-53V151ZM383,549q0,20-11,37L231,76h69q37,0 60,22t23,53V549Z" />
      <glyph unicode="&#xd9;" glyph-name="Ugrave" horiz-adv-x="540" d="M227,841L331,726H248L116,841H227ZM462,170q0-85-46.5-127.5T282,0H257Q170,0 123.5,42.5T77,170V700h87V151q0-31 23-53t60-22h45q37,0 60,22t23,53V700h87V170Z" />
      <glyph unicode="&#xda;" glyph-name="Uacute" horiz-adv-x="540" d="M426,841L294,726H211L315,841H426Zm36-671q0-85-46.5-127.5T282,0H257Q170,0 123.5,42.5T77,170V700h87V151q0-31 23-53t60-22h45q37,0 60,22t23,53V700h87V170Z" />
      <glyph unicode="&#xdb;" glyph-name="Ucircumflex" horiz-adv-x="540" d="M214,730H118L228,845h92L431,730H334l-60,64l-60-64ZM462,170q0-85-46.5-127.5T282,0H257Q170,0 123.5,42.5T77,170V700h87V151q0-31 23-53t60-22h45q37,0 60,22t23,53V700h87V170Z" />
      <glyph unicode="&#xdc;" glyph-name="Udieresis" horiz-adv-x="540" d="M214,815V735H129v80h85Zm200,0V735H329v80h85Zm48-645q0-85-46.5-127.5T282,0H257Q170,0 123.5,42.5T77,170V700h87V151q0-31 23-53t60-22h45q37,0 60,22t23,53V700h87V170Z" />
      <glyph unicode="&#xdd;" glyph-name="Yacute" horiz-adv-x="540" d="M401,841L269,726H186L290,841H401ZM223,0V325L44,700h96L272,409L404,700h91L313,325V0H223Z" />
      <glyph unicode="&#xde;" glyph-name="Thorn" horiz-adv-x="540" d="M455,300q0-81-43-119.5T285,142H181V0H94V700h87V570H283q85,0 128.5-37.5T455,414V300ZM368,423q0,38-17.5,55T295,495H181V217H295q38,0 55.5,17.5T368,290V423Z" />
      <glyph unicode="&#xdf;" glyph-name="germandbls" horiz-adv-x="540" d="M78,560q0,70 43,105t107,35h39q88,0 129-37.5T437,540V415H359q-30,0-42.5-11T304,370V355q0-23 11.5-34T347,310q55,0 87-32t32-88V125q0-56-35-90.5T328,0H216V75H334q47,0 47,45v70q0,22-10.5,33.5T335,235q-51,0-83.5,33T219,356v10q0,64 34,90.5T352,486v74q0,31-19,48t-56,17H223q-33,0-46.5-17T163,570V0H78V560Z" />
      <glyph unicode="&#xe0;" glyph-name="agrave" horiz-adv-x="540" d="M238,715L342,580H256L134,715H238ZM417,0q-13,0-28.5,8T362,30Q339,0 301,0H212Q136,0 101.5,30.5T67,135v20q0,155 146,155H337v50q0,31-19,48t-56,17H107v75H252q87,0 128.5-38T422,340V100q0-15 11.5-22.5T472,70V0H417ZM291,75q30,0 38,14t8,36V235H212q-26,0-43-17t-17-43V125q0-26 12-38t38-12h89Z" />
      <glyph unicode="&#xe1;" glyph-name="aacute" horiz-adv-x="540" d="M410,715L288,580H202L306,715H410ZM417,0q-13,0-28.5,8T362,30Q339,0 301,0H212Q136,0 101.5,30.5T67,135v20q0,155 146,155H337v50q0,31-19,48t-56,17H107v75H252q87,0 128.5-38T422,340V100q0-15 11.5-22.5T472,70V0H417ZM291,75q30,0 38,14t8,36V235H212q-26,0-43-17t-17-43V125q0-26 12-38t38-12h89Z" />
      <glyph unicode="&#xe2;" glyph-name="acircumflex" horiz-adv-x="540" d="M194,580H98L210,715h88L411,580H314l-60,75l-60-75ZM417,0q-13,0-28.5,8T362,30Q339,0 301,0H212Q136,0 101.5,30.5T67,135v20q0,155 146,155H337v50q0,31-19,48t-56,17H107v75H252q87,0 128.5-38T422,340V100q0-15 11.5-22.5T472,70V0H417ZM291,75q30,0 38,14t8,36V235H212q-26,0-43-17t-17-43V125q0-26 12-38t38-12h89Z" />
      <glyph unicode="&#xe3;" glyph-name="atilde" horiz-adv-x="540" d="M106,667q9,5 37,19t40,14h15q8,0 24-6t33-14q42-20 54-20h10q8,0 33,15t34,21V624q-8-5-32.5-19T318,591H303q-5,0-45,17q-52,23-65,23H183q-9,0-38-15t-39-21v72ZM417,0q-13,0-28.5,8T362,30Q339,0 301,0H212Q136,0 101.5,30.5T67,135v20q0,155 146,155H337v50q0,31-19,48t-56,17H107v75H252q87,0 128.5-38T422,340V100q0-15 11.5-22.5T472,70V0H417ZM291,75q30,0 38,14t8,36V235H212q-26,0-43-17t-17-43V125q0-26 12-38t38-12h89Z" />
      <glyph unicode="&#xe4;" glyph-name="adieresis" horiz-adv-x="540" d="M191,675V595H106v80h85Zm200,0V595H306v80h85ZM417,0q-13,0-28.5,8T362,30Q339,0 301,0H212Q136,0 101.5,30.5T67,135v20q0,155 146,155H337v50q0,31-19,48t-56,17H107v75H252q87,0 128.5-38T422,340V100q0-15 11.5-22.5T472,70V0H417ZM291,75q30,0 38,14t8,36V235H212q-26,0-43-17t-17-43V125q0-26 12-38t38-12h89Z" />
      <glyph unicode="&#xe5;" glyph-name="aring" horiz-adv-x="540" d="M344,633q0-41-25-63t-64-22h-6q-39,0-64,22t-25,63v29q0,42 24.5,63.5T249,747h6q40,0 64.5-21.5T344,662V633Zm-57,30q0,38-32,38h-6q-18,0-26-10.5T215,663V632q0-17 8-27.5T249,594h6q32,0 32,38v31ZM417,0q-13,0-28.5,8T362,30Q339,0 301,0H212Q136,0 101.5,30.5T67,135v20q0,155 146,155H337v50q0,31-19,48t-56,17H107v75H252q87,0 128.5-38T422,340V100q0-15 11.5-22.5T472,70V0H417ZM291,75q30,0 38,14t8,36V235H212q-26,0-43-17t-17-43V125q0-26 12-38t38-12h89Z" />
      <glyph unicode="&#xe6;" glyph-name="ae" horiz-adv-x="540" d="M395,0q-49,0-78.5,11T273,47q-11-20-36-33.5T174,0H160Q93,0 59,31.5T25,135v12q0,77 34,116t107,39h66v58q0,32-15.5,48.5T165,425H60v75h95q45,0 71-9t49-28q21,20 41.5,28.5T375,500h7q70,0 102-39t32-116V229H315V132q3-59 70-59h99V0H395Zm40,367q0,27-13.5,43.5T383,427h-8q-35,0-47.5-16T315,362V302H435v65ZM163,229q-26,0-40.5-17.5T108,167V123q0-26 12-38t38-12h26q30,0 39,14t9,36V229H163Z" />
      <glyph unicode="&#xe7;" glyph-name="ccedilla" horiz-adv-x="540" d="M293-136q33,0 33,31q0,17-8.5,23T291-76H242V3q-62,9-92,46.5T120,160V340q0,84 41.5,122T290,500H419V425H280q-37,0-56-17t-19-48V140q0-31 19-48t56-17H419V0H312V-21q46,0 66.5-17.5T399-105q0-58-25.5-76.5T311-200H226v64h67Z" />
      <glyph unicode="&#xe8;" glyph-name="egrave" horiz-adv-x="540" d="M261,715L365,580H279L157,715H261ZM264,0Q176,0 135,37.5T94,160V340q0,86 37,123t123,37h47q71,0 107.5-39.5T445,345V215H179V140q0-31 19-48t56-17H413V0H264Zm98,365q0,26-17,43t-43,17H244q-36,0-50.5-16.5T179,360V290H362v75Z" />
      <glyph unicode="&#xe9;" glyph-name="eacute" horiz-adv-x="540" d="M426,715L304,580H218L322,715H426ZM264,0Q176,0 135,37.5T94,160V340q0,86 37,123t123,37h47q71,0 107.5-39.5T445,345V215H179V140q0-31 19-48t56-17H413V0H264Zm98,365q0,26-17,43t-43,17H244q-36,0-50.5-16.5T179,360V290H362v75Z" />
      <glyph unicode="&#xea;" glyph-name="ecircumflex" horiz-adv-x="540" d="M211,580H115L227,715h88L428,580H331l-60,75l-60-75ZM264,0Q176,0 135,37.5T94,160V340q0,86 37,123t123,37h47q71,0 107.5-39.5T445,345V215H179V140q0-31 19-48t56-17H413V0H264Zm98,365q0,26-17,43t-43,17H244q-36,0-50.5-16.5T179,360V290H362v75Z" />
      <glyph unicode="&#xeb;" glyph-name="edieresis" horiz-adv-x="540" d="M218,675V595H133v80h85Zm200,0V595H333v80h85ZM264,0Q176,0 135,37.5T94,160V340q0,86 37,123t123,37h47q71,0 107.5-39.5T445,345V215H179V140q0-31 19-48t56-17H413V0H264Zm98,365q0,26-17,43t-43,17H244q-36,0-50.5-16.5T179,360V290H362v75Z" />
      <glyph unicode="&#xec;" glyph-name="igrave" horiz-adv-x="540" d="M253,715L357,580H271L149,715H253ZM80,425v75H312V75H460V0H227V425H80Z" />
      <glyph unicode="&#xed;" glyph-name="iacute" horiz-adv-x="540" d="M413,715L291,580H205L309,715H413ZM80,425v75H312V75H460V0H227V425H80Z" />
      <glyph unicode="&#xee;" glyph-name="icircumflex" horiz-adv-x="540" d="M213,580H117L229,715h88L430,580H333l-60,75l-60-75ZM80,425v75H312V75H460V0H227V425H80Z" />
      <glyph unicode="&#xef;" glyph-name="idieresis" horiz-adv-x="540" d="M213,675V595H128v80h85Zm200,0V595H328v80h85ZM80,425v75H312V75H460V0H227V425H80Z" />
      <glyph unicode="&#xf0;" glyph-name="eth" horiz-adv-x="540" d="M223,626H147v74H266l30,50h82l-36-60q103-32 103-160V170q0-82-45-126T287,0H252Q184,0 139,44T94,170V300q0,84 41,122t127,38h98v89q0,25-15.5,45.5T303,622l-33-56H188l35,60Zm29-241q-36,0-54.5-17.5T179,319V151q0-32 21-54t57-22h25q36,0 57,22t21,54V385H252Z" />
      <glyph unicode="&#xf1;" glyph-name="ntilde" horiz-adv-x="540" d="M137,667q9,5 37,19t40,14h15q8,0 24-6t33-14q42-20 54-20h10q7,0 32.5,15T417,696V624q-8-5-32.5-19T349,591H334q-5,0-45,17q-52,23-65,23H214q-9,0-38-15t-39-21v72Zm30-167V476q31,24 80,24h46q81,0 120.5-38T453,340V0H368V360q0,30-17.5,47.5T303,425H237q-33,0-49-17.5T172,370V0H87V500h80Z" />
      <glyph unicode="&#xf2;" glyph-name="ograve" horiz-adv-x="540" d="M261,715L365,580H279L157,715H261ZM452,160q0-84-41.5-122T282,0H249Q162,0 120.5,38T79,160V340q0,84 41.5,122T249,500h33q87,0 128.5-38T452,340V160ZM367,360q0,31-19,48t-56,17H239q-37,0-56-17t-19-48V140q0-31 19-48t56-17h53q37,0 56,17t19,48V360Z" />
      <glyph unicode="&#xf3;" glyph-name="oacute" horiz-adv-x="540" d="M377,715L255,580H169L273,715H377Zm79-555q0-84-41.5-122T286,0H253Q166,0 124.5,38T83,160V340q0,84 41.5,122T253,500h33q87,0 128.5-38T456,340V160ZM371,360q0,31-19,48t-56,17H243q-37,0-56-17t-19-48V140q0-31 19-48t56-17h53q37,0 56,17t19,48V360Z" />
      <glyph unicode="&#xf4;" glyph-name="ocircumflex" horiz-adv-x="540" d="M210,580H114L226,715h88L427,580H330l-60,75l-60-75ZM456,160q0-84-41.5-122T286,0H253Q166,0 124.5,38T83,160V340q0,84 41.5,122T253,500h33q87,0 128.5-38T456,340V160ZM371,360q0,31-19,48t-56,17H243q-37,0-56-17t-19-48V140q0-31 19-48t56-17h53q37,0 56,17t19,48V360Z" />
      <glyph unicode="&#xf5;" glyph-name="otilde" horiz-adv-x="540" d="M130,667q9,5 37,19t40,14h15q8,0 24-6t33-14q42-20 54-20h10q8,0 33,15t34,21V624q-8-5-32.5-19T342,591H327q-5,0-45,17q-52,23-65,23H207q-9,0-38-15t-39-21v72ZM456,160q0-84-41.5-122T286,0H253Q166,0 124.5,38T83,160V340q0,84 41.5,122T253,500h33q87,0 128.5-38T456,340V160ZM371,360q0,31-19,48t-56,17H243q-37,0-56-17t-19-48V140q0-31 19-48t56-17h53q37,0 56,17t19,48V360Z" />
      <glyph unicode="&#xf6;" glyph-name="odieresis" horiz-adv-x="540" d="M213,675V595H128v80h85Zm200,0V595H328v80h85Zm43-515q0-84-41.5-122T286,0H253Q166,0 124.5,38T83,160V340q0,84 41.5,122T253,500h33q87,0 128.5-38T456,340V160ZM371,360q0,31-19,48t-56,17H243q-37,0-56-17t-19-48V140q0-31 19-48t56-17h53q37,0 56,17t19,48V360Z" />
      <glyph unicode="&#xf7;" glyph-name="divide" horiz-adv-x="540" d="M320,560V460H220V560H320ZM460,350V275H80v75H460ZM320,165V65H220V165H320Z" />
      <glyph unicode="&#xf8;" glyph-name="oslash" horiz-adv-x="540" d="M456,160q0-84-41.5-122T286,0H233L206-89H128L159,15q-38,17-57,52.5T83,160V340q0,84 41.5,122T253,500h33q14,0 20-1l28,90h77L379,484q39-17 58-52t19-92V160ZM168,140q0-28 15-45L284,425H243q-37,0-56-17t-19-48V140ZM371,360q0,28-16,44L255,75h41q37,0 56,17t19,48V360Z" />
      <glyph unicode="&#xf9;" glyph-name="ugrave" horiz-adv-x="540" d="M239,715L343,580H257L135,715H239ZM367,23Q334,0 287,0H253Q172,0 132.5,38T93,160V500h85V140q0-30 17.5-47.5T243,75h54q32,0 47.5,16T362,127V500h85V0H367V23Z" />
      <glyph unicode="&#xfa;" glyph-name="uacute" horiz-adv-x="540" d="M425,715L303,580H217L321,715H425ZM367,23Q334,0 287,0H253Q172,0 132.5,38T93,160V500h85V140q0-30 17.5-47.5T243,75h54q32,0 47.5,16T362,127V500h85V0H367V23Z" />
      <glyph unicode="&#xfb;" glyph-name="ucircumflex" horiz-adv-x="540" d="M209,580H113L225,715h88L426,580H329l-60,75l-60-75ZM367,23Q334,0 287,0H253Q172,0 132.5,38T93,160V500h85V140q0-30 17.5-47.5T243,75h54q32,0 47.5,16T362,127V500h85V0H367V23Z" />
      <glyph unicode="&#xfc;" glyph-name="udieresis" horiz-adv-x="540" d="M210,675V595H125v80h85Zm200,0V595H325v80h85ZM367,23Q334,0 287,0H253Q172,0 132.5,38T93,160V500h85V140q0-30 17.5-47.5T243,75h54q32,0 47.5,16T362,127V500h85V0H367V23Z" />
      <glyph unicode="&#xfd;" glyph-name="yacute" horiz-adv-x="540" d="M403,715L281,580H195L299,715H403ZM180-95q24,0 36,9t18,31L248,0H228L63,500h92L280,81L389,500h87L321-54q-13-51-32-76t-42.5-32.5T186-170H138v75h42Z" />
      <glyph unicode="&#xfe;" glyph-name="thorn" horiz-adv-x="540" d="M283,500q88,0 129-37.5T453,340V160q0-84-41.5-122T283,0H182V-170H97V700h85V480q31,20 75,20h26Zm85-140q0,31-19,48t-56,17H247q-33,0-49-17.5T182,370V75H293q37,0 56,17t19,48V360Z" />
      <glyph unicode="&#xff;" glyph-name="ydieresis" horiz-adv-x="540" d="M212,675V595H127v80h85Zm200,0V595H327v80h85ZM180-95q24,0 36,9t18,31L248,0H228L63,500h92L280,81L389,500h87L321-54q-13-51-32-76t-42.5-32.5T186-170H138v75h42Z" />
      <glyph unicode="&#x2013;" glyph-name="endash" horiz-adv-x="540" d="M460,350V275H80v75H460Z" />
      <glyph unicode="&#x2014;" glyph-name="emdash" horiz-adv-x="540" d="M507,350V275H32v75H507Z" />
      <glyph unicode="&#x2018;" glyph-name="quoteleft" horiz-adv-x="540" d="M302,542V452H207v90l55,157h70L302,542Z" />
      <glyph unicode="&#x2019;" glyph-name="quoteright" horiz-adv-x="540" d="M237,610v90h95V610L277,453H207l30,157Z" />
      <glyph unicode="&#x201a;" glyph-name="quotesinglbase" horiz-adv-x="540" d="M237,0V90h95V0L277-157H207L237,0Z" />
      <glyph unicode="&#x201c;" glyph-name="quotedblleft" horiz-adv-x="540" d="M225,542V452H130v90l55,157h70L225,542Zm155,0V452H285v90l55,157h70L380,542Z" />
      <glyph unicode="&#x201d;" glyph-name="quotedblright" horiz-adv-x="540" d="M160,610v90h95V610L200,453H130l30,157Zm155,0v90h95V610L355,453H285l30,157Z" />
      <glyph unicode="&#x201e;" glyph-name="quotedblbase" horiz-adv-x="540" d="M160,0V90h95V0L200-157H130L160,0ZM315,0V90h95V0L355-157H285L315,0Z" />
      <glyph unicode="&#x2022;" glyph-name="bullet" horiz-adv-x="540" d="M345,390V235H195V390H345Z" />
      <glyph unicode="&#x2039;" glyph-name="guilsinglleft" horiz-adv-x="540" d="M281,506h66L284,299L347,92H281L192,299l89,207Z" />
      <glyph unicode="&#x203a;" glyph-name="guilsinglright" horiz-adv-x="540" d="M192,506h66l89-207L258,92H192l63,207L192,506Z" />
    </font>
</defs>
</svg>
